<?xml version="1.0" encoding="UTF-8"?>
<svg xmlns="http://www.w3.org/2000/svg" width="1920" height="720" viewBox="0 0 1920 720">
  <title>Emotion Curves</title>
  <rect width="100%" height="100%" fill="#FFFFFF"/>
  
  <g id="header">
    <rect x="0" y="0" width="1920" height="88" rx="0" fill="#4D7A64"/>
    <text font-family="'Noto Sans TC','PingFang TC','Microsoft JhengHei',sans-serif" font-size="28" font-weight="700" fill="#FFFFFF">
  <tspan x="48" dy="0">情緒曲線摘要</tspan>
</text>
    <text font-family="'Noto Sans TC','PingFang TC','Microsoft JhengHei',sans-serif" font-size="14" font-weight="400" fill="#E8F0EC">
  <tspan x="48" dy="0">端到端情緒高低點 · 供簡報與優先排序使用</tspan>
</text>
  </g><g id="chart-area"><rect x="120" y="160" width="1680" height="420" rx="12" fill="#FAF8F5" stroke="#E5E0D8" stroke-width="1.5"/><line x1="120" y1="580" x2="1800" y2="580" stroke="#E5E0D8" stroke-width="1"/><text font-family="'Noto Sans TC','PingFang TC','Microsoft JhengHei',sans-serif" font-size="11" font-weight="400" fill="#8B7E6A">
  <tspan x="84" dy="0">0</tspan>
</text><line x1="120" y1="496" x2="1800" y2="496" stroke="#E5E0D8" stroke-width="1"/><text font-family="'Noto Sans TC','PingFang TC','Microsoft JhengHei',sans-serif" font-size="11" font-weight="400" fill="#8B7E6A">
  <tspan x="84" dy="0">2</tspan>
</text><line x1="120" y1="412" x2="1800" y2="412" stroke="#E5E0D8" stroke-width="1"/><text font-family="'Noto Sans TC','PingFang TC','Microsoft JhengHei',sans-serif" font-size="11" font-weight="400" fill="#8B7E6A">
  <tspan x="84" dy="0">4</tspan>
</text><line x1="120" y1="328" x2="1800" y2="328" stroke="#E5E0D8" stroke-width="1"/><text font-family="'Noto Sans TC','PingFang TC','Microsoft JhengHei',sans-serif" font-size="11" font-weight="400" fill="#8B7E6A">
  <tspan x="84" dy="0">6</tspan>
</text><line x1="120" y1="244" x2="1800" y2="244" stroke="#E5E0D8" stroke-width="1"/><text font-family="'Noto Sans TC','PingFang TC','Microsoft JhengHei',sans-serif" font-size="11" font-weight="400" fill="#8B7E6A">
  <tspan x="84" dy="0">8</tspan>
</text><line x1="120" y1="160" x2="1800" y2="160" stroke="#E5E0D8" stroke-width="1"/><text font-family="'Noto Sans TC','PingFang TC','Microsoft JhengHei',sans-serif" font-size="11" font-weight="400" fill="#8B7E6A">
  <tspan x="84" dy="0">10</tspan>
</text><text font-family="'Noto Sans TC','PingFang TC','Microsoft JhengHei',sans-serif" font-size="12" font-weight="600" fill="#5A4E3C">
  <tspan x="96" dy="0">認知</tspan>
</text><text font-family="'Noto Sans TC','PingFang TC','Microsoft JhengHei',sans-serif" font-size="12" font-weight="600" fill="#5A4E3C">
  <tspan x="376" dy="0">考量</tspan>
</text><text font-family="'Noto Sans TC','PingFang TC','Microsoft JhengHei',sans-serif" font-size="12" font-weight="600" fill="#5A4E3C">
  <tspan x="656" dy="0">準備</tspan>
</text><text font-family="'Noto Sans TC','PingFang TC','Microsoft JhengHei',sans-serif" font-size="12" font-weight="600" fill="#5A4E3C">
  <tspan x="936" dy="0">線上參與</tspan>
</text><text font-family="'Noto Sans TC','PingFang TC','Microsoft JhengHei',sans-serif" font-size="12" font-weight="600" fill="#5A4E3C">
  <tspan x="1216" dy="0">線下市集</tspan>
</text><text font-family="'Noto Sans TC','PingFang TC','Microsoft JhengHei',sans-serif" font-size="12" font-weight="600" fill="#5A4E3C">
  <tspan x="1496" dy="0">持續</tspan>
</text><text font-family="'Noto Sans TC','PingFang TC','Microsoft JhengHei',sans-serif" font-size="12" font-weight="600" fill="#5A4E3C">
  <tspan x="1776" dy="0">倡導</tspan>
</text><polyline points="120,370 400,412 680,454 960,412 1240,244 1520,286 1800,244" fill="none" stroke="#4D7A64" stroke-width="3" stroke-linejoin="round"/><circle cx="120" cy="370" r="6" fill="#4D7A64"/><circle cx="400" cy="412" r="6" fill="#4D7A64"/><circle cx="680" cy="454" r="6" fill="#4D7A64"/><circle cx="960" cy="412" r="6" fill="#4D7A64"/><circle cx="1240" cy="244" r="6" fill="#4D7A64"/><circle cx="1520" cy="286" r="6" fill="#4D7A64"/><circle cx="1800" cy="244" r="6" fill="#4D7A64"/><polyline points="120,328 400,370 680,370 960,328 1240,286 1520,328 1800,286" fill="none" stroke="#A85538" stroke-width="3" stroke-linejoin="round"/><circle cx="120" cy="328" r="6" fill="#A85538"/><circle cx="400" cy="370" r="6" fill="#A85538"/><circle cx="680" cy="370" r="6" fill="#A85538"/><circle cx="960" cy="328" r="6" fill="#A85538"/><circle cx="1240" cy="286" r="6" fill="#A85538"/><circle cx="1520" cy="328" r="6" fill="#A85538"/><circle cx="1800" cy="286" r="6" fill="#A85538"/><polyline points="120,370 400,328 680,328 960,286 1240,244 1520,244 1800,286" fill="none" stroke="#5B7FA6" stroke-width="3" stroke-linejoin="round"/><circle cx="120" cy="370" r="6" fill="#5B7FA6"/><circle cx="400" cy="328" r="6" fill="#5B7FA6"/><circle cx="680" cy="328" r="6" fill="#5B7FA6"/><circle cx="960" cy="286" r="6" fill="#5B7FA6"/><circle cx="1240" cy="244" r="6" fill="#5B7FA6"/><circle cx="1520" cy="244" r="6" fill="#5B7FA6"/><circle cx="1800" cy="286" r="6" fill="#5B7FA6"/><polyline points="120,370 400,370 680,370 960,370 1240,244 1520,286 1800,244" fill="none" stroke="#7C6B9E" stroke-width="3" stroke-linejoin="round"/><circle cx="120" cy="370" r="6" fill="#7C6B9E"/><circle cx="400" cy="370" r="6" fill="#7C6B9E"/><circle cx="680" cy="370" r="6" fill="#7C6B9E"/><circle cx="960" cy="370" r="6" fill="#7C6B9E"/><circle cx="1240" cy="244" r="6" fill="#7C6B9E"/><circle cx="1520" cy="286" r="6" fill="#7C6B9E"/><circle cx="1800" cy="244" r="6" fill="#7C6B9E"/><polyline points="120,412 400,454" fill="none" stroke="#8B7E6A" stroke-width="3" stroke-linejoin="round"/><circle cx="120" cy="412" r="6" fill="#8B7E6A"/><circle cx="400" cy="454" r="6" fill="#8B7E6A"/></g><g id="legend"><rect x="120" y="620" width="16" height="16" rx="4" fill="#4D7A64"/><text font-family="'Noto Sans TC','PingFang TC','Microsoft JhengHei',sans-serif" font-size="13" font-weight="400" fill="#5A4E3C">
  <tspan x="144" dy="0">P1 長者陳姨</tspan>
</text><rect x="400" y="620" width="16" height="16" rx="4" fill="#A85538"/><text font-family="'Noto Sans TC','PingFang TC','Microsoft JhengHei',sans-serif" font-size="13" font-weight="400" fill="#5A4E3C">
  <tspan x="424" dy="0">P2 街坊阿明</tspan>
</text><rect x="680" y="620" width="16" height="16" rx="4" fill="#5B7FA6"/><text font-family="'Noto Sans TC','PingFang TC','Microsoft JhengHei',sans-serif" font-size="13" font-weight="400" fill="#5A4E3C">
  <tspan x="704" dy="0">P3 換取方李姐</tspan>
</text><rect x="960" y="620" width="16" height="16" rx="4" fill="#7C6B9E"/><text font-family="'Noto Sans TC','PingFang TC','Microsoft JhengHei',sans-serif" font-size="13" font-weight="400" fill="#5A4E3C">
  <tspan x="984" dy="0">P4 義工阿珍</tspan>
</text><rect x="1240" y="620" width="16" height="16" rx="4" fill="#8B7E6A"/><text font-family="'Noto Sans TC','PingFang TC','Microsoft JhengHei',sans-serif" font-size="13" font-weight="400" fill="#5A4E3C">
  <tspan x="1264" dy="0">P5 訪客何太</tspan>
</text></g><g id="insights"><text font-family="'Noto Sans TC','PingFang TC','Microsoft JhengHei',sans-serif" font-size="14" font-weight="700" fill="#5A4E3C">
  <tspan x="120" dy="0">關鍵轉折</tspan>
</text><text font-family="'Noto Sans TC','PingFang TC','Microsoft JhengHei',sans-serif" font-size="12" font-weight="400" fill="#8B7E6A">
  <tspan x="120" dy="0">P1: 義工代操作消除 App 障礙</tspan>
</text><text font-family="'Noto Sans TC','PingFang TC','Microsoft JhengHei',sans-serif" font-size="12" font-weight="400" fill="#8B7E6A">
  <tspan x="700" dy="0">P2: 試水溫參觀降低承諾</tspan>
</text><text font-family="'Noto Sans TC','PingFang TC','Microsoft JhengHei',sans-serif" font-size="12" font-weight="400" fill="#8B7E6A">
  <tspan x="1280" dy="0">P3: 預約成功 → 現場交收閉環</tspan>
</text></g>
</svg>